<svg xmlns="http://www.w3.org/2000/svg" xmlns:xlink="http://www.w3.org/1999/xlink" version="1.1" id="Layer_1" x="0px" y="0px" viewBox="0 0 353 104" style="enable-background:new 0 0 353 104;" xml:space="preserve" width="353"  height="104" >
<style type="text/css">
	.st0{display:none;}
	.st1{fill:#9CCC52;}
	.st2{fill:#008064;}
</style>
<g id="wHPZOY.tif" class="st0">
	
		<image style="display:inline;overflow:visible;" width="345" height="97" id="Layer_0_1_" xlink:href="86304A7523C8337D.png" transform="matrix(1 0 0 1 5 -216.39)">
	</image>
</g>
<g id="XMLID_2_">
	<rect id="XMLID_1_" x="37.5" y="4.2" class="st1" width="29.3" height="29.1"/>
	<rect id="XMLID_9_" x="37.5" y="68.9" class="st1" width="29.3" height="29.1"/>
	<path id="XMLID_37_" class="st1" d="M70.2,36.8V66h29.3V36.8H70.2z M95.8,57.3c-0.2,1.3-1.3,2.2-2.3,2.6c-0.9,0.3-1.9,0.5-2.9,0.5   c-2.5,0-5,0-7.5,0c0,0,0,0,0,0c-2.6,0-5.2,0-7.8,0c-0.6,0-0.8-0.2-0.7-0.7c0-0.4,0-0.8,0-1.2c-0.1-0.6,0.2-0.8,0.8-0.8   c4.8,0,9.6,0,14.4,0c0.6,0,1.2,0,1.8-0.2c0.7-0.2,1-0.5,1-1.3c0-0.8,0-1.6,0-2.4c0-0.9-0.4-1.4-1.3-1.5c-0.8-0.1-1.5-0.1-2.3-0.1   c-3.3,0-6.6,0-9.9,0c-1.2,0-2.4-0.2-3.4-0.9c-1-0.6-1.5-1.5-1.6-2.7c0-0.7,0-1.4,0-2.1c0-1.7,0.7-2.5,2.3-3.2c0.9-0.4,2-0.6,3-0.6   c4.9,0,9.9,0,14.8,0c0.5,0,0.7,0.1,0.7,0.6c0,0.4,0,0.8,0.1,1.2c0.1,0.6-0.1,0.9-0.8,0.8c-3.3,0-6.5,0-9.8,0c-1.5,0-3.1,0-4.6,0   c-0.3,0-0.6,0-0.9,0.1c-1.2,0.3-1.4,0.5-1.4,1.8c0,0.1,0,0.2,0,0.3c0,1.5,0.4,1.9,1.9,2c1.2,0,2.4,0,3.6,0c2.8,0,5.7-0.1,8.5,0.1   c1.3,0.1,2.7,0.4,3.7,1.4c0.5,0.5,0.8,1.2,0.8,2c0,1,0,2.1,0,3.1V57.3z"/>
	<path id="XMLID_36_" class="st1" d="M37.5,36.8V66h29.3V36.8H37.5z M54.1,60.2h-3.5L39.1,42.8h3.5l9.6,14.7L62,42.8h3.5L54.1,60.2z   "/>
	<path id="XMLID_34_" class="st1" d="M5.3,36.8V66h29.3V36.8H5.3z M31.5,60.2h-2.7v0h-0.4L11.2,46.5v13.7h-3V42.8h3.1l17.2,13.7   V42.8h3V60.2z"/>
</g>
<g id="XMLID_3_">
	<path id="XMLID_32_" class="st2" d="M130.8,40.3h-19.2v10.5v3v7.6h3.5v-7.6h15.7c3.1,0,5.7-2.6,5.7-5.7v-2.1   C136.4,42.8,133.9,40.3,130.8,40.3z M132.9,48c0,1.2-1,2.2-2.2,2.2h-15.7v-6.4h15.7c1.2,0,2.2,1,2.2,2.2V48z"/>
	<path id="XMLID_39_" class="st2" d="M219,40.3h-19.2v10.5v3v7.6h3.5v-7.6h12.4l4.6,7.7h4.1l-4.7-7.7c2.8-0.4,4.9-2.7,4.9-5.6v-2.1   C224.7,42.8,222.1,40.3,219,40.3z M221.2,48c0,1.2-1,2.2-2.2,2.2h-15.7v-6.4H219c1.2,0,2.2,1,2.2,2.2V48z"/>
	<polygon id="XMLID_40_" class="st2" points="160.7,48.6 142.7,48.6 142.7,40.3 139.2,40.3 139.2,61.3 142.7,61.3 142.7,52.1    160.7,52.1 160.7,61.3 164.2,61.3 164.2,40.3 160.7,40.3  "/>
	<circle id="XMLID_41_" class="st2" cx="182.2" cy="54.5" r="3.2"/>
	<circle id="XMLID_42_" class="st2" cx="277.2" cy="54.5" r="3.2"/>
	<path id="XMLID_43_" class="st2" d="M293.4,45.9v9.8c0,3.1,2.6,5.7,5.7,5.7H317v-3.5h-17.9c-1.2,0-2.2-1-2.2-2.2v-9.8   c0-1.2,1-2.2,2.2-2.2H317v-3.5h-17.9C295.9,40.3,293.4,42.8,293.4,45.9z"/>
	<polygon id="XMLID_44_" class="st2" points="344.8,40.3 334.3,49.9 324.7,40.3 319.7,40.3 332.3,52.8 332.3,61.2 335.8,61.2    335.8,53.3 349.9,40.3  "/>
	<polygon id="XMLID_45_" class="st2" points="179.7,40.7 166.8,61.3 170.9,61.3 182,43.7 193.4,61.3 197.6,61.3 184.2,40.7  "/>
	<polygon id="XMLID_46_" class="st2" points="243.8,58.1 231,40.3 227.5,40.3 227.5,61.3 231,61.3 231,46.3 241.8,61.3 245.8,61.3    256.3,46.3 256.3,61.3 259.8,61.3 259.8,40.3 256.3,40.3  "/>
	<polygon id="XMLID_47_" class="st2" points="274.7,40.7 261.8,61.3 265.9,61.3 277,43.7 288.4,61.3 292.6,61.3 279.2,40.7  "/>
</g>
</svg>